<?xml version="1.0" encoding="UTF-8"?>
<svg width="156px" height="34px" viewBox="0 0 156 34" version="1.1" xmlns="http://www.w3.org/2000/svg" xmlns:xlink="http://www.w3.org/1999/xlink">
    <!-- Generator: Sketch 47.1 (45422) - http://www.bohemiancoding.com/sketch -->
    <title>serp-search</title>
    <desc>Created with Sketch.</desc>
    <defs>
        <polygon id="path-1" points="27.2243 33 0.0003 33 0.0003 0.3304 27.2243 0.3304"></polygon>
        <polygon id="path-3" points="25.385 0.1152 25.385 33.5052 0.4561 33.5052 0.4561 0.1152 25.385 0.1152"></polygon>
    </defs>
    <g id="Page-1" stroke="none" stroke-width="1" fill="none" fill-rule="evenodd">
        <g id="serp-search" transform="translate(0.000000, -1.000000)">
            <g id="Group-3" transform="translate(0.000000, 1.884800)">
                <mask id="mask-2" fill="white">
                    <use xlink:href="#path-1"></use>
                </mask>
                <g id="Clip-2"></g>
                <path d="M18.6973,8.0244 C16.7923,7.3944 15.1943,7.0804 13.9053,7.0804 C12.8853,7.0804 12.0823,7.2674 11.4973,7.6424 C10.9123,8.0174 10.6193,8.5644 10.6193,9.2854 C10.6193,9.9754 10.8743,10.5524 11.3853,11.0174 C11.8943,11.4824 12.5243,11.8574 13.2753,12.1424 C14.0243,12.4274 15.1343,12.7954 16.6053,13.2454 C18.7943,13.8754 20.6023,14.5044 22.0273,15.1344 C23.4513,15.7644 24.6743,16.7324 25.6953,18.0374 C26.7143,19.3424 27.2243,21.0454 27.2243,23.1444 C27.2243,25.2454 26.6693,27.0374 25.5593,28.5224 C24.4493,30.0074 22.9273,31.1254 20.9923,31.8754 C19.0573,32.6244 16.9043,33.0004 14.5343,33.0004 C11.9253,33.0004 9.3223,32.5424 6.7273,31.6274 C4.1323,30.7124 1.8893,29.4604 0.0003,27.8704 L3.1953,21.4344 C4.7843,22.8454 6.6673,24.0004 8.8423,24.8994 C11.0173,25.7994 12.9443,26.2504 14.6253,26.2504 C15.8543,26.2504 16.8223,26.0244 17.5273,25.5754 C18.2323,25.1254 18.5853,24.4654 18.5853,23.5944 C18.5853,22.8754 18.3223,22.2754 17.7973,21.7954 C17.2723,21.3154 16.6123,20.9324 15.8173,20.6474 C15.0223,20.3624 13.9053,20.0254 12.4653,19.6344 C10.3043,19.0354 8.5193,18.4274 7.1103,17.8124 C5.6993,17.1984 4.4923,16.2674 3.4873,15.0224 C2.4823,13.7784 1.9803,12.1204 1.9803,10.0494 C1.9803,8.1004 2.4973,6.3894 3.5323,4.9204 C4.5673,3.4504 6.0363,2.3174 7.9423,1.5224 C9.8473,0.7274 12.0593,0.3304 14.5793,0.3304 C16.8593,0.3304 19.1093,0.6524 21.3293,1.2974 C23.5493,1.9424 25.4993,2.8044 27.1793,3.8844 L24.0743,10.4554 C22.3943,9.4644 20.6023,8.6554 18.6973,8.0244" id="Fill-1" fill="#2E83FC" mask="url(#mask-2)"></path>
            </g>
            <path d="M46.6646,20.0801 C46.6646,18.6701 46.2516,17.5371 45.4276,16.6831 C44.6016,15.8271 43.5146,15.3991 42.1646,15.3991 C40.9046,15.3991 39.8476,15.8201 38.9926,16.6591 C38.1376,17.5001 37.5746,18.6401 37.3046,20.0801 L46.6646,20.0801 Z M51.2546,13.2841 C53.3846,15.6251 54.4496,18.8351 54.4496,22.9151 C54.4496,23.5451 54.4346,24.0241 54.4046,24.3541 L37.4846,24.3541 C37.8736,25.7351 38.5496,26.7921 39.5096,27.5271 C40.4696,28.2631 41.6396,28.6301 43.0196,28.6301 C44.0696,28.6301 45.0816,28.4201 46.0576,28.0001 C47.0316,27.5801 47.9246,26.9651 48.7346,26.1541 L52.9196,30.3401 C51.6596,31.7501 50.1366,32.8221 48.3516,33.5581 C46.5666,34.2931 44.5496,34.6591 42.2996,34.6591 C39.6896,34.6591 37.4096,34.1491 35.4596,33.1301 C33.5096,32.1101 32.0176,30.6701 30.9816,28.8091 C29.9476,26.9501 29.4296,24.7901 29.4296,22.3301 C29.4296,19.8401 29.9546,17.6421 31.0046,15.7371 C32.0546,13.8321 33.5396,12.3621 35.4596,11.3271 C37.3786,10.2921 39.5996,9.7741 42.1196,9.7741 C46.0796,9.7741 49.1236,10.9441 51.2546,13.2841 L51.2546,13.2841 Z" id="Fill-4" fill="#EA4336"></path>
            <path d="M70.605,28.4268 C71.504,27.8418 72.075,27.0848 72.315,26.1548 L72.315,24.0398 L67.545,24.0398 C65.295,24.0398 64.17,24.8798 64.17,26.5598 C64.17,27.3998 64.462,28.0678 65.047,28.5628 C65.632,29.0578 66.434,29.3048 67.456,29.3048 C68.655,29.3048 69.706,29.0118 70.605,28.4268 M77.355,12.0468 C79.215,13.5928 80.16,15.7598 80.19,18.5498 L80.19,34.3898 L72.315,34.3898 L72.315,31.6448 C70.695,33.7148 68.25,34.7498 64.98,34.7498 C62.399,34.7498 60.367,34.0518 58.882,32.6568 C57.397,31.2618 56.655,29.4248 56.655,27.1448 C56.655,24.8348 57.457,23.0348 59.063,21.7448 C60.667,20.4548 62.97,19.7948 65.969,19.7648 L72.315,19.7648 L72.315,19.4948 C72.315,18.3238 71.917,17.4248 71.123,16.7948 C70.327,16.1648 69.18,15.8498 67.68,15.8498 C66.66,15.8498 65.512,16.0148 64.237,16.3448 C62.962,16.6748 61.679,17.1548 60.39,17.7838 L58.185,12.3848 C60.165,11.4848 62.062,10.8178 63.877,10.3818 C65.692,9.9478 67.575,9.7298 69.525,9.7298 C72.884,9.7298 75.495,10.5018 77.355,12.0468" id="Fill-6" fill="#FBBC04"></path>
            <path d="M96.8618,10.8545 C98.1968,10.1055 99.7188,9.7295 101.4298,9.7295 L101.4298,17.0645 C101.1598,17.0355 100.7548,17.0195 100.2158,17.0195 C98.3248,17.0195 96.7958,17.4625 95.6258,18.3465 C94.4548,19.2325 93.7798,20.4395 93.5998,21.9695 L93.5998,34.3895 L85.5908,34.3895 L85.5908,10.0445 L93.5998,10.0445 L93.5998,14.0945 C94.4398,12.6845 95.5268,11.6045 96.8618,10.8545" id="Fill-8" fill="#2E83FC"></path>
            <path d="M115.8755,16.3897 C114.4355,16.3897 113.2645,16.9377 112.3645,18.0327 C111.4655,19.1277 111.0145,20.5447 111.0145,22.2847 C111.0145,24.0547 111.4655,25.4797 112.3645,26.5597 C113.2645,27.6397 114.4355,28.1797 115.8755,28.1797 C118.0945,28.1797 119.6845,27.2647 120.6455,25.4347 L126.5395,28.8097 C125.5795,30.6697 124.1395,32.1107 122.2195,33.1297 C120.2995,34.1497 118.0495,34.6597 115.4695,34.6597 C112.9795,34.6597 110.7895,34.1497 108.8995,33.1297 C107.0105,32.1107 105.5475,30.6697 104.5125,28.8097 C103.4775,26.9507 102.9595,24.7897 102.9595,22.3297 C102.9595,19.8397 103.4845,17.6427 104.5345,15.7377 C105.5845,13.8317 107.0625,12.3627 108.9675,11.3277 C110.8715,10.2917 113.0685,9.7747 115.5605,9.7747 C117.9895,9.7747 120.1495,10.2777 122.0395,11.2827 C123.9305,12.2877 125.3985,13.7047 126.4495,15.5347 L120.6455,18.9097 C119.5045,17.2297 117.9145,16.3897 115.8755,16.3897" id="Fill-10" fill="#35A752"></path>
            <g id="Group-14" transform="translate(130.000000, 0.884800)">
                <mask id="mask-4" fill="white">
                    <use xlink:href="#path-3"></use>
                </mask>
                <g id="Clip-13"></g>
                <path d="M22.9771,11.3652 C24.5821,13.0452 25.3851,15.3102 25.3851,18.1602 L25.3851,33.5052 L17.3751,33.5052 L17.3751,20.4552 C17.3751,19.0752 17.0071,17.9872 16.2721,17.1922 C15.5381,16.3972 14.5241,16.0002 13.2351,16.0002 C11.7641,16.0302 10.6021,16.5482 9.7481,17.5522 C8.8931,18.5572 8.4651,19.8702 8.4651,21.4902 L8.4651,33.5052 L0.4561,33.5052 L0.4561,0.1152 L8.4651,0.1152 L8.4651,13.1202 C9.3341,11.7102 10.4521,10.6442 11.8171,9.9252 C13.1821,9.2052 14.7491,8.8442 16.5201,8.8442 C19.2191,8.8442 21.3721,9.6852 22.9771,11.3652" id="Fill-12" fill="#EA4336" mask="url(#mask-4)"></path>
            </g>
        </g>
    </g>
</svg>